<svg width="34" height="57" viewBox="0 0 34 57" fill="none" xmlns="http://www.w3.org/2000/svg">
<g id="Group 44">
<g id="Group 42">
<rect id="Rectangle 11" x="12.7499" y="43.8477" width="8.5" height="8.54956" fill="white"/>
<path id="Vector" d="M16.9999 39.3286C12.2399 39.3286 8.49994 43.0904 8.49994 47.8782C8.49994 52.4949 12.2399 56.4277 16.8299 56.4277H16.9999C21.5899 56.4277 25.4999 52.6659 25.4999 48.0492V47.8782C25.4999 43.0904 21.7599 39.3286 16.9999 39.3286ZM16.9999 44.4584C18.8699 44.4584 20.3999 45.9973 20.3999 47.8782C20.3999 49.7591 18.8699 51.298 16.9999 51.298C15.1299 51.298 13.5999 49.7591 13.5999 47.8782C13.5999 45.9973 15.1299 44.4584 16.9999 44.4584Z" fill="#072A4A"/>
</g>
<rect id="Rectangle 11_2" x="5.95001" y="6.83984" width="22.95" height="19.664" fill="white"/>
<path id="Vector_2" d="M25.9344 2.25034C23.1849 0.643383 20.0929 0 17.0009 0C13.909 0 10.815 0.963571 8.06744 2.25034C0.165249 6.75108 -2.23984 16.0655 2.22799 23.456L17.001 47.8775L31.774 23.456C36.2396 16.0655 33.8324 6.75108 25.9344 2.25034ZM8.2853 14.8682L8.0363 14.9495L7.45524 13.2419L7.62124 13.0793C9.50134 11.3453 10.7174 9.36639 11.2735 7.14341C12.6016 7.57744 13.3487 7.90273 13.5147 8.11915C13.5147 8.17408 13.4566 8.25539 13.3487 8.36307C13.0706 8.47188 12.8506 8.66192 12.6846 8.93229C12.5726 9.04109 12.4356 9.23113 12.2696 9.5015C10.7755 11.5618 9.77941 12.7815 9.28135 13.1606L12.1866 13.0793C12.6846 12.3749 13.1826 11.3453 13.6807 9.98941C14.7847 10.5322 15.4238 10.9926 15.5898 11.3718C15.5898 11.4267 15.5068 11.508 15.3408 11.6157C15.1167 11.7244 14.9507 11.8596 14.8428 12.0223C14.7307 12.131 14.4817 12.4563 14.0958 12.998C12.1576 15.655 10.7755 17.389 9.94548 18.2021C11.8256 17.8769 13.3487 17.579 14.5108 17.3077L14.4278 19.0152C11.8795 19.3405 9.91641 19.6658 8.53436 19.991L8.20237 20.0723L7.37232 18.202L7.53831 18.1207C8.47629 17.8504 9.72134 16.6032 11.2736 14.3803C9.99933 14.4891 9.00328 14.6517 8.2853 14.8682ZM8.2853 24.138L7.62124 22.3492L14.9258 20.9668L15.0918 22.5931L8.2853 24.138ZM22.8113 26.0895C21.4251 24.8424 19.213 23.6776 16.1708 22.593L17.3329 21.048C19.8771 22.1326 22.1722 23.271 24.2224 24.4633L22.8113 26.0895ZM23.3093 22.2678C21.5911 21.0755 19.848 20.2349 18.08 19.7471L19.076 18.2834C20.1261 18.7175 21.8401 19.5032 24.2224 20.6415L23.3093 22.2678ZM25.6335 19.0152C23.4753 18.2021 21.8402 17.3077 20.7362 16.3319C19.2961 17.4164 17.6068 18.3647 15.6728 19.1779C15.3947 18.5273 15.0337 17.9856 14.5937 17.5516C16.5858 17.0098 18.246 16.2242 19.5741 15.1935C18.798 14.2726 18.2709 13.4046 17.997 12.5914C17.2748 13.7847 16.6108 14.7605 16.0048 15.5187C15.6728 15.0857 15.1457 14.7869 14.4277 14.6243C16.1418 12.7815 17.5819 10.2069 18.7439 6.89949C19.5159 7.0621 20.2921 7.36095 21.0681 7.79393C21.0681 7.84886 21.01 7.93016 20.9021 8.03785C20.458 8.418 20.0139 9.04109 19.574 9.9081C22.6162 9.85423 24.6083 9.77292 25.5504 9.66418C24.7744 11.4531 23.5293 13.3233 21.8152 15.2749C23.0312 16.1967 24.7453 16.7935 26.9616 17.0638C26.4636 17.4977 26.0195 18.1482 25.6335 19.0152Z" fill="#072A4A"/>
<path id="Vector_3" d="M18.7 11.1975C19.1335 12.4592 19.7346 13.4463 20.4992 14.1589C21.0962 13.6108 21.7792 12.5959 22.5438 11.1152C21.726 11.1708 20.442 11.1975 18.7 11.1975Z" fill="#072A4A"/>
</g>
</svg>
