<svg width="34" height="57" viewBox="0 0 34 57" fill="none" xmlns="http://www.w3.org/2000/svg">
<g id="Group 43">
<g id="Group 42">
<rect id="Rectangle 11" x="12.75" y="44.1777" width="8.5" height="8.54956" fill="white"/>
<path id="Vector" d="M17 39.6587C12.24 39.6587 8.5 43.4205 8.5 48.2083C8.5 52.825 12.24 56.7578 16.83 56.7578H17C21.59 56.7578 25.5 52.996 25.5 48.3792V48.2083C25.5 43.4205 21.76 39.6587 17 39.6587ZM17 44.7884C18.87 44.7884 20.4 46.3274 20.4 48.2083C20.4 50.0892 18.87 51.6281 17 51.6281C15.13 51.6281 13.6 50.0892 13.6 48.2083C13.6 46.3274 15.13 44.7884 17 44.7884Z" fill="#37B0AD"/>
</g>
<rect id="Rectangle 11_2" x="5.10001" y="7.41211" width="22.95" height="19.664" fill="white"/>
<path id="Vector_2" d="M25.9342 2.82262C23.1866 1.21567 20.0945 0.572266 17.0004 0.572266C13.9063 0.572266 10.8142 1.53581 8.06668 2.82262C0.164325 7.32333 -2.23873 16.6378 2.22711 24.0282L17.0004 48.4498L31.7738 24.0282C36.2397 16.6378 33.8325 7.32333 25.9342 2.82262ZM17.4985 8.85407C18.2166 8.96285 18.7685 9.01667 19.1587 9.01667H22.8941C23.5001 9.01667 24.1932 8.96278 24.9693 8.85407C24.8033 9.61331 24.7452 10.1825 24.8033 10.5617V14.546C24.8033 15.0339 24.8573 15.658 24.9693 16.4162H23.0602C23.1141 16.0371 23.1432 15.7657 23.1432 15.6031H19.8228V19.994C19.7647 20.428 20.0138 20.672 20.5699 20.7258C21.732 20.8346 22.6991 20.7807 23.4752 20.5632C24.0812 20.3467 24.3883 19.561 24.3883 18.2051C24.9943 18.8557 25.6335 19.2622 26.2975 19.4249C25.9655 20.7808 25.5505 21.6203 25.0524 21.9456C24.7203 22.1082 23.8611 22.2444 22.4791 22.3522C21.3169 22.4071 20.4288 22.3796 19.8228 22.2709C18.6607 22.0544 18.1045 21.5391 18.1627 20.7259V15.1966C18.1046 14.8713 18.0507 14.4648 17.9967 13.9769C18.6608 14.0856 19.1837 14.1395 19.5738 14.1395H23.1432V10.4803H19.5738C18.4657 10.4803 17.7725 10.5078 17.4986 10.5617L17.4985 8.85407ZM25.8824 25.8487C21.6738 25.8487 18.6855 25.7399 16.9174 25.5234C15.0913 25.3608 13.788 25.0081 13.0161 24.4663C11.5759 23.4366 10.6628 22.4609 10.2768 21.539C9.88671 23.3279 9.33468 24.9268 8.61667 26.3365C8.17256 25.7938 7.6206 25.3333 6.95651 24.9542C8.33862 23.4905 9.08567 20.9159 9.19773 17.2294C10.6919 17.3382 11.4389 17.5008 11.4389 17.7173C11.4389 17.7722 11.4099 17.826 11.3559 17.8799C11.0779 18.3139 10.8579 18.9369 10.6918 19.7501C11.1899 20.5632 11.6879 21.2686 12.186 21.8642V15.9283H10.6918C9.69576 15.9283 8.72452 15.9832 7.78652 16.0909V14.3021C8.55853 14.357 9.52971 14.4108 10.6918 14.4647H12.103V11.9439C10.5507 11.9439 9.28069 11.9988 8.28463 12.1065V10.3989C9.33468 10.4538 10.6089 10.4803 12.103 10.4803C12.1569 9.01661 12.0739 7.98698 11.854 7.39034C13.402 7.49912 14.1491 7.63427 14.0952 7.79694C14.0952 7.85183 14.0661 7.95954 14.0121 8.1222C13.8461 8.39358 13.7631 8.66496 13.7631 8.93534V10.399C15.2573 10.399 16.2782 10.3726 16.8344 10.3177V12.1065C16.0043 11.9988 14.9792 11.9439 13.7631 11.9439V14.4647H14.5102C15.2282 14.4647 16.1413 14.4108 17.2494 14.3021V16.0909C16.3073 15.9832 15.3942 15.9283 14.5102 15.9283H13.8461V18.3677H14.5102C15.9462 18.3677 16.8884 18.3414 17.3324 18.2864V20.1566C16.3904 20.0489 15.4482 19.994 14.5102 19.994H13.8461V23.0839C15.9462 24.1145 20.3456 24.3037 27.0444 23.6531C26.3223 24.3576 25.9363 25.0893 25.8824 25.8487Z" fill="#37B0AD"/>
</g>
</svg>
